<?xml version="1.0" encoding="UTF-8" standalone="no"?>
<!-- Created with Inkscape (http://www.inkscape.org/) -->

<svg
   xmlns:dc="http://purl.org/dc/elements/1.1/"
   xmlns:cc="http://creativecommons.org/ns#"
   xmlns:rdf="http://www.w3.org/1999/02/22-rdf-syntax-ns#"
   xmlns:svg="http://www.w3.org/2000/svg"
   xmlns="http://www.w3.org/2000/svg"
   xmlns:sodipodi="http://sodipodi.sourceforge.net/DTD/sodipodi-0.dtd"
   xmlns:inkscape="http://www.inkscape.org/namespaces/inkscape"
   width="500"
   height="300"
   viewBox="0 0 499.99998 300"
   id="svg2"
   version="1.1"
   inkscape:version="0.91 r13725"
   sodipodi:docname="simback.svg"
   inkscape:export-filename="/Users/sammysam/Work/pxt-ar/docs/static/sim-background.png"
   inkscape:export-xdpi="100"
   inkscape:export-ydpi="100">
  <defs
     id="defs4" />
  <sodipodi:namedview
     id="base"
     pagecolor="#ffffff"
     bordercolor="#666666"
     borderopacity="1.0"
     inkscape:pageopacity="0.0"
     inkscape:pageshadow="2"
     inkscape:zoom="1.4"
     inkscape:cx="166.6863"
     inkscape:cy="86.839775"
     inkscape:document-units="px"
     inkscape:current-layer="layer1"
     showgrid="false"
     units="px"
     inkscape:window-width="1676"
     inkscape:window-height="1005"
     inkscape:window-x="4"
     inkscape:window-y="1"
     inkscape:window-maximized="1" />
  <metadata
     id="metadata7">
    <rdf:RDF>
      <cc:Work
         rdf:about="">
        <dc:format>image/svg+xml</dc:format>
        <dc:type
           rdf:resource="http://purl.org/dc/dcmitype/StillImage" />
        <dc:title></dc:title>
      </cc:Work>
    </rdf:RDF>
  </metadata>
  <g
     inkscape:label="Layer 1"
     inkscape:groupmode="layer"
     id="layer1"
     transform="translate(0,-752.36216)">
    <path
       style="fill:#000000;fill-opacity:0.05714286"
       d="m 181.83932,839.16654 -22.0187,-12.71249 12.71251,-22.0187 12.71249,-22.0187 22.0187,12.71251 22.0187,12.71249 -12.71251,22.0187 -12.71249,22.0187 -22.0187,-12.71251 z m 19.22243,-33.06922 -11.00935,-6.35625 -4.275,7.40453 -4.27499,7.4045 3.60482,2.08126 3.60483,2.08125 -2.08125,3.60483 -2.08124,3.60483 3.70225,2.13751 3.70225,2.13748 2.08126,-3.60482 2.08125,-3.60483 3.70226,2.1375 3.70225,2.1375 4.27501,-7.40451 4.27499,-7.40452 -11.00934,-6.35626 z"
       id="path4147"
       inkscape:connector-curvature="0" />
    <path
       style="fill:#000000;fill-opacity:0.05714286"
       d="m 375.42728,868.48287 0,-50.3415 50.3415,0 50.3415,0 0,50.3415 0,50.3415 -50.3415,0 -50.3415,0 0,-50.3415 z m 75.735,0.22275 0,-25.17075 -16.929,0 -16.929,0 0,8.24175 0,8.24175 -8.24175,0 -8.24175,0 0,8.4645 0,8.4645 8.24175,0 8.24175,0 0,8.4645 0,8.4645 16.929,0 16.929,0 0,-25.17075 z m -33.858,-0.22275 0,-8.4645 8.4645,0 8.4645,0 0,8.4645 0,8.4645 -8.4645,0 -8.4645,0 0,-8.4645 z"
       id="path4175"
       inkscape:connector-curvature="0" />
    <path
       style="fill:#000000;fill-opacity:0.05714286"
       d="M 51.744306,852.10063 41.11603,822.89967 70.316978,812.2714 99.517931,801.64312 110.1462,830.84407 120.77449,860.04504 91.573534,870.67331 62.372585,881.30159 51.744306,852.10063 Z m 47.504743,-6.16966 -1.787055,-4.9099 -4.909897,1.78706 -4.909894,1.78706 -1.787056,-4.90989 -1.787054,-4.90989 4.909894,-1.78706 4.909896,-1.78706 -1.740027,-4.78069 -1.740027,-4.78068 -9.819792,3.57411 -9.819788,3.57411 3.527083,9.69058 3.527083,9.69058 4.909894,-1.78706 4.909894,-1.78705 1.787056,4.9099 1.787054,4.90989 4.909894,-1.78706 4.909893,-1.78706 -1.787051,-4.90989 z"
       id="path4173"
       inkscape:connector-curvature="0" />
    <path
       style="fill:#000000;fill-opacity:0.05714286"
       d="m 120.24104,961.46904 -14.62327,-54.57476 54.57481,-14.62328 54.57481,-14.62328 14.62327,54.57477 14.62329,54.57482 -54.57481,14.62329 -54.57481,14.6233 -14.62329,-54.57486 z m 87.02125,-3.64703 -2.45878,-9.1763 -9.17629,2.45879 -9.1763,2.45878 -4.85285,-18.11111 -4.85286,-18.11111 -9.1763,2.45878 -9.17629,2.45878 2.39407,8.93481 2.39408,8.93482 -8.93481,2.39407 -8.93482,2.39408 2.45878,9.17629 2.45878,9.1763 8.93482,-2.39408 8.93481,-2.39407 2.45878,9.17629 2.45877,9.17628 18.35259,-4.91759 18.35259,-4.91756 -2.45877,-9.17625 z"
       id="path4188"
       inkscape:connector-curvature="0" />
    <path
       style="fill:#000000;fill-opacity:0.05714286"
       d="m 372.1031,977.94151 20.88256,-24.88687 24.88686,20.88255 24.88688,20.88258 -20.88255,24.88683 -20.88261,24.8869 -24.88685,-20.8826 -24.88687,-20.8825 20.88258,-24.88689 z m 30.41792,39.78539 3.51126,-4.1846 -4.18451,-3.5112 -4.18452,-3.5113 6.93006,-8.2589 6.93005,-8.25892 -4.18452,-3.51123 -4.18451,-3.51122 -6.93005,8.25892 -6.93006,8.2589 4.18451,3.51125 4.18452,3.5112 -3.51126,4.1846 -3.5112,4.1845 4.18451,3.5112 4.18452,3.5112 3.5112,-4.1844 z"
       id="path4201"
       inkscape:connector-curvature="0" />
    <path
       style="fill:#000000;fill-opacity:0.05714286"
       d="m 284.64147,947.28916 -14.12501,-24.46522 24.46522,-14.12499 24.46523,-14.12501 14.12499,24.46522 14.12501,24.46522 -24.46523,14.125 -24.46522,14.125 -14.12499,-24.46522 z m 41.55607,-13.02275 -2.375,-4.11362 -4.11361,2.37499 -4.11363,2.375 -2.375,-4.11362 -2.375,-4.11362 4.11363,-2.375 4.11361,-2.375 -2.3125,-4.00536 -2.31249,-4.00537 -4.11363,2.375 -4.11362,2.375 2.3125,4.00537 2.3125,4.00536 -8.11899,4.6875 -8.11898,4.6875 2.375,4.11362 2.375,4.11363 4.00537,-2.31251 4.00536,-2.3125 2.375,4.11363 2.375,4.11361 8.22724,-4.75 8.22724,-4.75 -2.375,-4.11361 z"
       id="path4251"
       inkscape:connector-curvature="0" />
    <path
       style="fill:#000000;fill-opacity:0.05714286"
       d="m 291.65172,787.13147 9.66207,-26.54631 26.54631,9.66206 26.54632,9.66207 -9.66207,26.54632 -9.66207,26.54631 -26.54632,-9.66207 -26.54631,-9.66206 9.66207,-26.54632 z m 36.68774,23.46294 1.62459,-4.46354 -4.46354,-1.6246 -4.46354,-1.6246 1.6246,-4.46354 1.6246,-4.46354 4.46354,1.6246 4.46354,1.6246 1.58184,-4.34608 1.58184,-4.34608 -4.46354,-1.6246 -4.46354,-1.62459 -1.58184,4.34608 -1.58184,4.34607 -4.46354,-1.62459 -4.46354,-1.6246 -1.6246,4.46354 -1.6246,4.46354 4.46354,1.6246 4.46354,1.62459 -1.62459,4.46354 -1.6246,4.46354 4.46354,1.6246 4.46354,1.6246 1.6246,-4.46354 z"
       id="path4249"
       inkscape:connector-curvature="0" />
    <path
       style="fill:#000000;fill-opacity:0.05714286"
       d="m 21.642446,986.94732 0,-25.425 25.425,0 25.424998,0 0,25.425 0,25.42498 -25.424998,0 -25.425,0 0,-25.42498 z m 38.249999,8.54999 0,-4.27499 -4.274999,0 -4.275,0 0,-4.275 0,-4.275 4.275,0 4.274999,0 0,-4.1625 0,-4.1625 -4.274999,0 -4.275,0 0,4.1625 0,4.1625 -4.275,0 -4.275,0 0,4.275 0,4.275 4.275,0 4.275,0 0,4.27499 0,4.27499 4.275,0 4.274999,0 0,-4.27499 z"
       id="path4247"
       inkscape:connector-curvature="0" />
    <path
       style="fill:#000000;fill-opacity:0.05714286"
       d="m 257.60599,858.41288 0,-14.125 14.125,0 14.12499,0 0,14.125 0,14.125 -14.12499,0 -14.125,0 0,-14.125 z m 21.25,4.75 0,-2.375 -2.375,0 -2.375,0 0,-2.375 0,-2.375 -2.375,0 -2.375,0 0,2.375 0,2.375 2.375,0 2.375,0 0,2.375 0,2.375 2.375,0 2.375,0 0,-2.375 z"
       id="path4253"
       inkscape:connector-curvature="0" />
  </g>
</svg>
